<?xml version="1.0" standalone="no"?>
<!DOCTYPE svg PUBLIC "-//W3C//DTD SVG 20010904//EN"
 "http://www.w3.org/TR/2001/REC-SVG-20010904/DTD/svg10.dtd">
<svg version="1.0" xmlns="http://www.w3.org/2000/svg"
 width="300.000000pt" height="234.000000pt" viewBox="0 0 300.000000 234.000000"
 preserveAspectRatio="xMidYMid meet">
<metadata>
Created by potrace 1.10, written by Peter Selinger 2001-2011
</metadata>
<g transform="translate(0.000000,234.000000) scale(0.100000,-0.100000)"
fill="#000000" stroke="none">
<path d="M1139 1677 c-19 -12 -44 -42 -56 -67 -22 -42 -23 -54 -23 -305 0
-251 1 -263 23 -305 58 -117 199 -122 274 -11 23 34 32 101 13 101 -31 0 -150
139 -150 175 0 22 8 19 43 -17 110 -109 355 -108 480 2 21 18 40 30 43 27 20
-19 -67 -135 -126 -169 -33 -19 -40 -28 -40 -54 0 -17 10 -46 23 -65 75 -111
216 -106 275 11 21 42 22 54 22 305 0 251 -1 263 -22 305 -34 66 -79 93 -148
88 -70 -5 -99 -26 -191 -140 -39 -48 -74 -88 -78 -87 -3 0 -40 42 -81 92 -41
50 -90 102 -109 114 -47 32 -125 32 -172 0z m157 -34 c13 -8 44 -40 71 -71 79
-94 110 -122 135 -122 25 0 68 36 108 91 62 85 140 136 188 124 14 -3 37 -15
50 -26 50 -39 52 -53 52 -330 0 -287 -5 -315 -59 -343 -39 -20 -100 -20 -129
0 -19 13 -52 63 -52 78 0 2 29 34 65 71 36 36 65 72 65 80 0 8 6 15 14 15 18
0 46 44 46 73 0 30 -42 77 -68 77 -20 0 -52 -39 -52 -63 0 -58 -179 -111 -297
-87 -95 19 -171 65 -159 96 6 17 -31 54 -54 54 -23 0 -60 -45 -60 -73 0 -23
37 -87 51 -87 5 0 9 -6 9 -12 0 -7 27 -40 60 -72 33 -32 60 -64 60 -70 0 -20
-39 -75 -61 -87 -32 -17 -93 -15 -119 4 -13 9 -31 29 -41 44 -17 25 -19 52
-19 293 0 233 2 269 18 299 33 66 115 86 178 44z m-51 -322 c3 -6 -4 -15 -15
-21 -11 -6 -20 -20 -20 -30 0 -12 -7 -20 -16 -20 -13 0 -15 6 -9 27 11 46 44
70 60 44z m565 -10 c13 -25 13 -74 0 -66 -5 3 -10 15 -10 27 0 11 -8 22 -20
25 -11 3 -20 12 -20 19 0 21 38 17 50 -5z"/>
<path d="M1980 765 c0 -72 4 -125 9 -125 6 0 11 19 13 42 2 23 9 43 15 45 7 3
25 -16 40 -41 15 -25 34 -46 41 -46 15 0 13 4 -30 67 l-29 43 33 29 c18 16 30
33 25 37 -4 4 -28 -12 -52 -36 l-45 -44 0 77 c0 45 -4 77 -10 77 -6 0 -10 -48
-10 -125z"/>
<path d="M617 813 c-13 -13 -8 -160 6 -172 20 -16 27 -4 27 45 0 59 15 94 40
94 18 0 20 -6 20 -69 0 -50 4 -70 14 -74 21 -8 26 2 26 55 0 59 14 88 40 88
18 0 20 -7 20 -69 0 -50 4 -70 14 -74 8 -3 17 -3 20 0 9 9 7 146 -2 160 -13
21 -58 26 -76 8 -15 -15 -17 -15 -32 -1 -19 20 -34 20 -61 1 -19 -13 -22 -13
-27 0 -6 16 -18 19 -29 8z"/>
<path d="M933 810 c-29 -12 -43 -40 -43 -87 1 -46 18 -71 57 -82 40 -12 93 11
93 39 0 25 -5 25 -37 0 -31 -24 -37 -25 -57 -4 -31 30 -19 43 42 46 54 3 57 4
54 28 -2 29 -45 70 -70 69 -9 0 -27 -4 -39 -9z m59 -37 c27 -25 22 -33 -22
-33 -41 0 -52 14 -28 38 16 16 28 15 50 -5z"/>
<path d="M1087 813 c-4 -3 -7 -43 -7 -89 0 -61 4 -83 14 -87 22 -9 26 2 26 62
0 64 10 84 36 79 16 -3 20 -14 22 -68 3 -60 15 -86 34 -74 4 3 8 31 8 62 0 65
9 85 36 80 16 -3 20 -15 24 -71 3 -37 8 -67 13 -67 4 0 12 0 17 0 6 0 10 32
10 75 0 69 -2 76 -26 92 -24 15 -29 15 -53 2 -23 -13 -29 -13 -53 0 -24 14
-28 14 -46 -2 -17 -16 -20 -16 -25 -2 -7 16 -19 19 -30 8z"/>
<path d="M1388 800 c-44 -34 -43 -126 2 -150 28 -15 87 -12 104 6 32 31 13 51
-22 24 -31 -25 -37 -25 -62 0 -29 29 -17 40 46 40 53 0 54 0 54 29 0 20 -9 36
-26 50 -33 26 -64 27 -96 1z m76 -32 c14 -23 5 -30 -38 -26 -36 3 -36 3 -20
26 18 26 41 26 58 0z"/>
<path d="M1550 733 c0 -58 4 -93 10 -93 7 0 10 25 8 64 -2 71 11 99 46 94 19
-3 21 -11 24 -80 3 -88 22 -108 22 -24 0 74 13 106 44 106 30 0 36 -16 36 -96
0 -36 4 -64 10 -64 6 0 10 31 10 73 0 59 -4 77 -18 90 -23 21 -41 21 -69 2
-19 -13 -22 -13 -27 0 -7 18 -47 20 -64 3 -10 -10 -15 -10 -22 2 -7 10 -10
-16 -10 -77z"/>
<path d="M1822 804 c-12 -8 -22 -22 -22 -30 0 -20 13 -17 28 7 10 15 21 19 45
17 27 -2 32 -7 32 -28 0 -21 -6 -26 -37 -31 -20 -3 -44 -11 -52 -19 -19 -15
-21 -51 -4 -68 16 -16 70 -15 87 1 11 10 14 10 18 0 12 -33 18 -6 15 65 -4 84
-15 102 -62 102 -14 0 -36 -7 -48 -16z m88 -98 c0 -31 -22 -48 -57 -44 -20 2
-29 9 -31 25 -3 18 4 24 30 32 51 14 58 13 58 -13z"/>
<path d="M2145 795 c-37 -36 -31 -120 9 -147 34 -23 106 4 106 40 0 17 -6 15
-34 -13 -35 -35 -86 -12 -86 38 0 15 7 18 33 16 73 -5 87 -1 87 26 0 32 -33
65 -65 65 -14 0 -37 -11 -50 -25z m83 -7 c7 -7 12 -20 12 -30 0 -15 -9 -18
-50 -18 -54 0 -62 10 -33 42 18 21 53 24 71 6z"/>
<path d="M2300 730 c0 -49 4 -90 9 -90 10 0 21 133 14 161 -12 46 -23 12 -23
-71z"/>
<path d="M2337 814 c-14 -14 -7 -21 23 -21 18 0 29 5 27 11 -4 13 -40 20 -50
10z"/>
</g>
</svg>
