<svg xmlns="http://www.w3.org/2000/svg" xmlns:xlink="http://www.w3.org/1999/xlink" width="500" zoomAndPan="magnify" viewBox="0 0 375 374.999991" height="500" preserveAspectRatio="xMidYMid meet" version="1.0"><defs><g/><clipPath id="5f65857c51"><path d="M 103 145 L 143.101562 145 L 143.101562 189.988281 L 103 189.988281 Z M 103 145 " clip-rule="nonzero"/></clipPath><clipPath id="f226a5175f"><path d="M 97.351562 147 L 109 147 L 109 189.988281 L 97.351562 189.988281 Z M 97.351562 147 " clip-rule="nonzero"/></clipPath></defs><g fill="#000000" fill-opacity="1"><g transform="translate(119.66547, 174.934133)"><g><path d="M 6.15625 -1.34375 L 10.5625 -1.34375 C 10.78125 -1.34375 10.96875 -1.382812 11.125 -1.46875 C 11.28125 -1.550781 11.414062 -1.664062 11.53125 -1.8125 C 11.644531 -1.96875 11.734375 -2.144531 11.796875 -2.34375 C 11.867188 -2.550781 11.925781 -2.773438 11.96875 -3.015625 L 12.140625 -4.046875 L 13.671875 -4.046875 L 13.5 0 L 0.609375 0 L 0.609375 -1.171875 L 1.53125 -1.171875 C 1.6875 -1.171875 1.832031 -1.179688 1.96875 -1.203125 C 2.113281 -1.234375 2.238281 -1.296875 2.34375 -1.390625 C 2.445312 -1.484375 2.523438 -1.613281 2.578125 -1.78125 C 2.640625 -1.957031 2.671875 -2.191406 2.671875 -2.484375 L 2.671875 -13.109375 C 2.671875 -13.429688 2.640625 -13.679688 2.578125 -13.859375 C 2.523438 -14.046875 2.445312 -14.191406 2.34375 -14.296875 C 2.238281 -14.398438 2.117188 -14.46875 1.984375 -14.5 C 1.847656 -14.53125 1.695312 -14.546875 1.53125 -14.546875 L 0.609375 -14.546875 L 0.609375 -15.703125 L 12.828125 -15.703125 L 12.90625 -11.65625 L 11.375 -11.65625 L 11.265625 -12.703125 C 11.210938 -13.234375 11.078125 -13.640625 10.859375 -13.921875 C 10.640625 -14.210938 10.304688 -14.359375 9.859375 -14.359375 L 6.15625 -14.359375 L 6.15625 -8.859375 L 11.375 -8.859375 L 11.375 -7.546875 L 6.15625 -7.546875 Z M 6.15625 -1.34375 "/></g></g></g><g fill="#000000" fill-opacity="1"><g transform="translate(134.025229, 174.934133)"><g><path d="M 9.34375 -1.53125 C 9.882812 -1.53125 10.363281 -1.59375 10.78125 -1.71875 C 11.195312 -1.84375 11.566406 -2.003906 11.890625 -2.203125 C 12.222656 -2.410156 12.515625 -2.640625 12.765625 -2.890625 C 13.015625 -3.140625 13.234375 -3.382812 13.421875 -3.625 C 13.535156 -3.539062 13.625 -3.410156 13.6875 -3.234375 C 13.757812 -3.054688 13.796875 -2.875 13.796875 -2.6875 C 13.796875 -2.375 13.710938 -2.046875 13.546875 -1.703125 C 13.378906 -1.367188 13.101562 -1.054688 12.71875 -0.765625 C 12.332031 -0.484375 11.820312 -0.25 11.1875 -0.0625 C 10.550781 0.125 9.757812 0.21875 8.8125 0.21875 C 7.539062 0.21875 6.425781 0.0234375 5.46875 -0.359375 C 4.519531 -0.753906 3.726562 -1.304688 3.09375 -2.015625 C 2.46875 -2.722656 2 -3.570312 1.6875 -4.5625 C 1.375 -5.5625 1.21875 -6.664062 1.21875 -7.875 C 1.21875 -9.0625 1.378906 -10.148438 1.703125 -11.140625 C 2.023438 -12.128906 2.5 -12.976562 3.125 -13.6875 C 3.757812 -14.394531 4.550781 -14.945312 5.5 -15.34375 C 6.445312 -15.738281 7.546875 -15.9375 8.796875 -15.9375 C 9.640625 -15.9375 10.375 -15.867188 11 -15.734375 C 11.632812 -15.597656 12.15625 -15.414062 12.5625 -15.1875 C 12.976562 -14.957031 13.289062 -14.6875 13.5 -14.375 C 13.707031 -14.0625 13.8125 -13.726562 13.8125 -13.375 C 13.8125 -13.101562 13.75 -12.847656 13.625 -12.609375 C 13.507812 -12.378906 13.335938 -12.175781 13.109375 -12 C 12.878906 -11.832031 12.59375 -11.703125 12.25 -11.609375 C 11.90625 -11.515625 11.507812 -11.46875 11.0625 -11.46875 C 11.0625 -11.832031 11.019531 -12.191406 10.9375 -12.546875 C 10.863281 -12.910156 10.734375 -13.238281 10.546875 -13.53125 C 10.359375 -13.820312 10.109375 -14.0625 9.796875 -14.25 C 9.484375 -14.4375 9.097656 -14.53125 8.640625 -14.53125 C 7.953125 -14.53125 7.367188 -14.378906 6.890625 -14.078125 C 6.410156 -13.785156 6.023438 -13.359375 5.734375 -12.796875 C 5.441406 -12.234375 5.226562 -11.535156 5.09375 -10.703125 C 4.96875 -9.878906 4.90625 -8.9375 4.90625 -7.875 C 4.90625 -6.8125 4.984375 -5.882812 5.140625 -5.09375 C 5.296875 -4.300781 5.550781 -3.640625 5.90625 -3.109375 C 6.257812 -2.585938 6.71875 -2.191406 7.28125 -1.921875 C 7.84375 -1.660156 8.53125 -1.53125 9.34375 -1.53125 Z M 9.34375 -1.53125 "/></g></g></g><g fill="#000000" fill-opacity="1"><g transform="translate(148.717932, 174.934133)"><g><path d="M 16.109375 -7.875 C 16.109375 -6.664062 15.941406 -5.5625 15.609375 -4.5625 C 15.285156 -3.570312 14.804688 -2.722656 14.171875 -2.015625 C 13.535156 -1.304688 12.757812 -0.753906 11.84375 -0.359375 C 10.925781 0.0234375 9.867188 0.21875 8.671875 0.21875 C 7.421875 0.21875 6.328125 0.0234375 5.390625 -0.359375 C 4.453125 -0.753906 3.675781 -1.304688 3.0625 -2.015625 C 2.445312 -2.722656 1.984375 -3.570312 1.671875 -4.5625 C 1.367188 -5.5625 1.21875 -6.671875 1.21875 -7.890625 C 1.21875 -9.109375 1.367188 -10.210938 1.671875 -11.203125 C 1.984375 -12.203125 2.445312 -13.050781 3.0625 -13.75 C 3.6875 -14.445312 4.460938 -14.988281 5.390625 -15.375 C 6.328125 -15.757812 7.425781 -15.953125 8.6875 -15.953125 C 9.875 -15.953125 10.925781 -15.757812 11.84375 -15.375 C 12.769531 -14.988281 13.546875 -14.441406 14.171875 -13.734375 C 14.804688 -13.035156 15.285156 -12.191406 15.609375 -11.203125 C 15.941406 -10.210938 16.109375 -9.101562 16.109375 -7.875 Z M 4.90625 -7.875 C 4.90625 -6.820312 4.972656 -5.882812 5.109375 -5.0625 C 5.242188 -4.238281 5.460938 -3.539062 5.765625 -2.96875 C 6.066406 -2.394531 6.457031 -1.957031 6.9375 -1.65625 C 7.414062 -1.363281 7.992188 -1.21875 8.671875 -1.21875 C 9.359375 -1.21875 9.9375 -1.363281 10.40625 -1.65625 C 10.882812 -1.957031 11.269531 -2.394531 11.5625 -2.96875 C 11.863281 -3.539062 12.078125 -4.238281 12.203125 -5.0625 C 12.335938 -5.882812 12.40625 -6.820312 12.40625 -7.875 C 12.40625 -8.925781 12.335938 -9.863281 12.203125 -10.6875 C 12.078125 -11.507812 11.863281 -12.203125 11.5625 -12.765625 C 11.269531 -13.335938 10.890625 -13.773438 10.421875 -14.078125 C 9.953125 -14.378906 9.375 -14.53125 8.6875 -14.53125 C 8 -14.53125 7.414062 -14.378906 6.9375 -14.078125 C 6.457031 -13.773438 6.066406 -13.335938 5.765625 -12.765625 C 5.460938 -12.203125 5.242188 -11.507812 5.109375 -10.6875 C 4.972656 -9.863281 4.90625 -8.925781 4.90625 -7.875 Z M 4.90625 -7.875 "/></g></g></g><g fill="#000000" fill-opacity="1"><g transform="translate(166.031262, 174.934133)"><g><path d="M 13.28125 0 L 13.28125 -1.171875 L 13.5 -1.171875 C 13.726562 -1.171875 13.929688 -1.179688 14.109375 -1.203125 C 14.285156 -1.234375 14.429688 -1.289062 14.546875 -1.375 C 14.660156 -1.46875 14.742188 -1.59375 14.796875 -1.75 C 14.859375 -1.914062 14.890625 -2.128906 14.890625 -2.390625 L 14.890625 -13.53125 L 10.453125 0 L 8.953125 0 L 4.3125 -13.53125 L 4.3125 -2.59375 C 4.3125 -2.28125 4.347656 -2.03125 4.421875 -1.84375 C 4.492188 -1.65625 4.597656 -1.507812 4.734375 -1.40625 C 4.878906 -1.3125 5.050781 -1.25 5.25 -1.21875 C 5.445312 -1.1875 5.675781 -1.171875 5.9375 -1.171875 L 6.0625 -1.171875 L 6.0625 0 L 0.609375 0 L 0.609375 -1.171875 L 1.53125 -1.171875 C 1.6875 -1.171875 1.832031 -1.179688 1.96875 -1.203125 C 2.113281 -1.234375 2.238281 -1.296875 2.34375 -1.390625 C 2.445312 -1.484375 2.523438 -1.613281 2.578125 -1.78125 C 2.640625 -1.957031 2.671875 -2.191406 2.671875 -2.484375 L 2.671875 -13.203125 C 2.671875 -13.492188 2.640625 -13.726562 2.578125 -13.90625 C 2.523438 -14.082031 2.445312 -14.21875 2.34375 -14.3125 C 2.238281 -14.40625 2.113281 -14.46875 1.96875 -14.5 C 1.832031 -14.53125 1.6875 -14.546875 1.53125 -14.546875 L 0.609375 -14.546875 L 0.609375 -15.703125 L 6.953125 -15.703125 L 10.609375 -5.078125 L 14.109375 -15.703125 L 20.328125 -15.703125 L 20.328125 -14.546875 L 19.40625 -14.546875 C 19.25 -14.546875 19.097656 -14.53125 18.953125 -14.5 C 18.816406 -14.46875 18.695312 -14.398438 18.59375 -14.296875 C 18.5 -14.191406 18.421875 -14.046875 18.359375 -13.859375 C 18.304688 -13.679688 18.28125 -13.429688 18.28125 -13.109375 L 18.28125 -2.59375 C 18.28125 -2.28125 18.304688 -2.03125 18.359375 -1.84375 C 18.421875 -1.65625 18.5 -1.507812 18.59375 -1.40625 C 18.695312 -1.3125 18.816406 -1.25 18.953125 -1.21875 C 19.097656 -1.1875 19.25 -1.171875 19.40625 -1.171875 L 20.328125 -1.171875 L 20.328125 0 Z M 13.28125 0 "/></g></g></g><g fill="#f82107" fill-opacity="1"><g transform="translate(186.977966, 174.934133)"><g><path d="M 13.28125 0 L 13.28125 -1.171875 L 13.5 -1.171875 C 13.726562 -1.171875 13.929688 -1.179688 14.109375 -1.203125 C 14.285156 -1.234375 14.429688 -1.289062 14.546875 -1.375 C 14.660156 -1.46875 14.742188 -1.59375 14.796875 -1.75 C 14.859375 -1.914062 14.890625 -2.128906 14.890625 -2.390625 L 14.890625 -13.53125 L 10.453125 0 L 8.953125 0 L 4.3125 -13.53125 L 4.3125 -2.59375 C 4.3125 -2.28125 4.347656 -2.03125 4.421875 -1.84375 C 4.492188 -1.65625 4.597656 -1.507812 4.734375 -1.40625 C 4.878906 -1.3125 5.050781 -1.25 5.25 -1.21875 C 5.445312 -1.1875 5.675781 -1.171875 5.9375 -1.171875 L 6.0625 -1.171875 L 6.0625 0 L 0.609375 0 L 0.609375 -1.171875 L 1.53125 -1.171875 C 1.6875 -1.171875 1.832031 -1.179688 1.96875 -1.203125 C 2.113281 -1.234375 2.238281 -1.296875 2.34375 -1.390625 C 2.445312 -1.484375 2.523438 -1.613281 2.578125 -1.78125 C 2.640625 -1.957031 2.671875 -2.191406 2.671875 -2.484375 L 2.671875 -13.203125 C 2.671875 -13.492188 2.640625 -13.726562 2.578125 -13.90625 C 2.523438 -14.082031 2.445312 -14.21875 2.34375 -14.3125 C 2.238281 -14.40625 2.113281 -14.46875 1.96875 -14.5 C 1.832031 -14.53125 1.6875 -14.546875 1.53125 -14.546875 L 0.609375 -14.546875 L 0.609375 -15.703125 L 6.953125 -15.703125 L 10.609375 -5.078125 L 14.109375 -15.703125 L 20.328125 -15.703125 L 20.328125 -14.546875 L 19.40625 -14.546875 C 19.25 -14.546875 19.097656 -14.53125 18.953125 -14.5 C 18.816406 -14.46875 18.695312 -14.398438 18.59375 -14.296875 C 18.5 -14.191406 18.421875 -14.046875 18.359375 -13.859375 C 18.304688 -13.679688 18.28125 -13.429688 18.28125 -13.109375 L 18.28125 -2.59375 C 18.28125 -2.28125 18.304688 -2.03125 18.359375 -1.84375 C 18.421875 -1.65625 18.5 -1.507812 18.59375 -1.40625 C 18.695312 -1.3125 18.816406 -1.25 18.953125 -1.21875 C 19.097656 -1.1875 19.25 -1.171875 19.40625 -1.171875 L 20.328125 -1.171875 L 20.328125 0 Z M 13.28125 0 "/></g></g></g><g fill="#f82107" fill-opacity="1"><g transform="translate(207.92151, 174.934133)"><g><path d="M 6.15625 -1.34375 L 10.5625 -1.34375 C 10.78125 -1.34375 10.96875 -1.382812 11.125 -1.46875 C 11.28125 -1.550781 11.414062 -1.664062 11.53125 -1.8125 C 11.644531 -1.96875 11.734375 -2.144531 11.796875 -2.34375 C 11.867188 -2.550781 11.925781 -2.773438 11.96875 -3.015625 L 12.140625 -4.046875 L 13.671875 -4.046875 L 13.5 0 L 0.609375 0 L 0.609375 -1.171875 L 1.53125 -1.171875 C 1.6875 -1.171875 1.832031 -1.179688 1.96875 -1.203125 C 2.113281 -1.234375 2.238281 -1.296875 2.34375 -1.390625 C 2.445312 -1.484375 2.523438 -1.613281 2.578125 -1.78125 C 2.640625 -1.957031 2.671875 -2.191406 2.671875 -2.484375 L 2.671875 -13.109375 C 2.671875 -13.429688 2.640625 -13.679688 2.578125 -13.859375 C 2.523438 -14.046875 2.445312 -14.191406 2.34375 -14.296875 C 2.238281 -14.398438 2.117188 -14.46875 1.984375 -14.5 C 1.847656 -14.53125 1.695312 -14.546875 1.53125 -14.546875 L 0.609375 -14.546875 L 0.609375 -15.703125 L 12.828125 -15.703125 L 12.90625 -11.65625 L 11.375 -11.65625 L 11.265625 -12.703125 C 11.210938 -13.234375 11.078125 -13.640625 10.859375 -13.921875 C 10.640625 -14.210938 10.304688 -14.359375 9.859375 -14.359375 L 6.15625 -14.359375 L 6.15625 -8.859375 L 11.375 -8.859375 L 11.375 -7.546875 L 6.15625 -7.546875 Z M 6.15625 -1.34375 "/></g></g></g><g fill="#f82107" fill-opacity="1"><g transform="translate(222.281269, 174.934133)"><g><path d="M 0.609375 -1.171875 L 1.53125 -1.171875 C 1.6875 -1.171875 1.832031 -1.179688 1.96875 -1.203125 C 2.101562 -1.234375 2.222656 -1.296875 2.328125 -1.390625 C 2.429688 -1.484375 2.515625 -1.613281 2.578125 -1.78125 C 2.640625 -1.957031 2.671875 -2.191406 2.671875 -2.484375 L 2.671875 -13.203125 C 2.671875 -13.492188 2.640625 -13.726562 2.578125 -13.90625 C 2.515625 -14.082031 2.429688 -14.21875 2.328125 -14.3125 C 2.222656 -14.40625 2.101562 -14.46875 1.96875 -14.5 C 1.832031 -14.53125 1.6875 -14.546875 1.53125 -14.546875 L 0.609375 -14.546875 L 0.609375 -15.703125 L 7.703125 -15.703125 C 9.773438 -15.703125 11.296875 -15.351562 12.265625 -14.65625 C 13.242188 -13.96875 13.734375 -12.960938 13.734375 -11.640625 C 13.734375 -11.054688 13.644531 -10.535156 13.46875 -10.078125 C 13.300781 -9.628906 13.070312 -9.238281 12.78125 -8.90625 C 12.5 -8.570312 12.179688 -8.285156 11.828125 -8.046875 C 11.472656 -7.816406 11.109375 -7.628906 10.734375 -7.484375 L 13.359375 -2.96875 C 13.535156 -2.65625 13.710938 -2.382812 13.890625 -2.15625 C 14.066406 -1.925781 14.242188 -1.738281 14.421875 -1.59375 C 14.597656 -1.445312 14.78125 -1.335938 14.96875 -1.265625 C 15.15625 -1.203125 15.351562 -1.171875 15.5625 -1.171875 L 15.640625 -1.171875 L 15.640625 0 L 14.921875 0 C 14.265625 0 13.691406 -0.0234375 13.203125 -0.078125 C 12.710938 -0.128906 12.28125 -0.226562 11.90625 -0.375 C 11.539062 -0.519531 11.222656 -0.71875 10.953125 -0.96875 C 10.679688 -1.226562 10.429688 -1.566406 10.203125 -1.984375 L 7.59375 -6.828125 L 6.140625 -6.828125 L 6.140625 -2.484375 C 6.140625 -2.191406 6.164062 -1.957031 6.21875 -1.78125 C 6.28125 -1.613281 6.363281 -1.484375 6.46875 -1.390625 C 6.570312 -1.296875 6.691406 -1.234375 6.828125 -1.203125 C 6.960938 -1.179688 7.109375 -1.171875 7.265625 -1.171875 L 8.203125 -1.171875 L 8.203125 0 L 0.609375 0 Z M 6.140625 -8.09375 L 7.375 -8.09375 C 7.875 -8.09375 8.296875 -8.160156 8.640625 -8.296875 C 8.984375 -8.441406 9.253906 -8.644531 9.453125 -8.90625 C 9.660156 -9.175781 9.804688 -9.515625 9.890625 -9.921875 C 9.984375 -10.328125 10.03125 -10.796875 10.03125 -11.328125 C 10.03125 -11.890625 9.976562 -12.363281 9.875 -12.75 C 9.78125 -13.132812 9.625 -13.453125 9.40625 -13.703125 C 9.195312 -13.953125 8.921875 -14.128906 8.578125 -14.234375 C 8.234375 -14.347656 7.816406 -14.40625 7.328125 -14.40625 L 6.140625 -14.40625 Z M 6.140625 -8.09375 "/></g></g></g><g fill="#f82107" fill-opacity="1"><g transform="translate(237.833194, 174.934133)"><g><path d="M 9.34375 -1.53125 C 9.882812 -1.53125 10.363281 -1.59375 10.78125 -1.71875 C 11.195312 -1.84375 11.566406 -2.003906 11.890625 -2.203125 C 12.222656 -2.410156 12.515625 -2.640625 12.765625 -2.890625 C 13.015625 -3.140625 13.234375 -3.382812 13.421875 -3.625 C 13.535156 -3.539062 13.625 -3.410156 13.6875 -3.234375 C 13.757812 -3.054688 13.796875 -2.875 13.796875 -2.6875 C 13.796875 -2.375 13.710938 -2.046875 13.546875 -1.703125 C 13.378906 -1.367188 13.101562 -1.054688 12.71875 -0.765625 C 12.332031 -0.484375 11.820312 -0.25 11.1875 -0.0625 C 10.550781 0.125 9.757812 0.21875 8.8125 0.21875 C 7.539062 0.21875 6.425781 0.0234375 5.46875 -0.359375 C 4.519531 -0.753906 3.726562 -1.304688 3.09375 -2.015625 C 2.46875 -2.722656 2 -3.570312 1.6875 -4.5625 C 1.375 -5.5625 1.21875 -6.664062 1.21875 -7.875 C 1.21875 -9.0625 1.378906 -10.148438 1.703125 -11.140625 C 2.023438 -12.128906 2.5 -12.976562 3.125 -13.6875 C 3.757812 -14.394531 4.550781 -14.945312 5.5 -15.34375 C 6.445312 -15.738281 7.546875 -15.9375 8.796875 -15.9375 C 9.640625 -15.9375 10.375 -15.867188 11 -15.734375 C 11.632812 -15.597656 12.15625 -15.414062 12.5625 -15.1875 C 12.976562 -14.957031 13.289062 -14.6875 13.5 -14.375 C 13.707031 -14.0625 13.8125 -13.726562 13.8125 -13.375 C 13.8125 -13.101562 13.75 -12.847656 13.625 -12.609375 C 13.507812 -12.378906 13.335938 -12.175781 13.109375 -12 C 12.878906 -11.832031 12.59375 -11.703125 12.25 -11.609375 C 11.90625 -11.515625 11.507812 -11.46875 11.0625 -11.46875 C 11.0625 -11.832031 11.019531 -12.191406 10.9375 -12.546875 C 10.863281 -12.910156 10.734375 -13.238281 10.546875 -13.53125 C 10.359375 -13.820312 10.109375 -14.0625 9.796875 -14.25 C 9.484375 -14.4375 9.097656 -14.53125 8.640625 -14.53125 C 7.953125 -14.53125 7.367188 -14.378906 6.890625 -14.078125 C 6.410156 -13.785156 6.023438 -13.359375 5.734375 -12.796875 C 5.441406 -12.234375 5.226562 -11.535156 5.09375 -10.703125 C 4.96875 -9.878906 4.90625 -8.9375 4.90625 -7.875 C 4.90625 -6.8125 4.984375 -5.882812 5.140625 -5.09375 C 5.296875 -4.300781 5.550781 -3.640625 5.90625 -3.109375 C 6.257812 -2.585938 6.71875 -2.191406 7.28125 -1.921875 C 7.84375 -1.660156 8.53125 -1.53125 9.34375 -1.53125 Z M 9.34375 -1.53125 "/></g></g></g><g fill="#f82107" fill-opacity="1"><g transform="translate(252.525896, 174.934133)"><g><path d="M 6.15625 -1.34375 L 10.5625 -1.34375 C 10.78125 -1.34375 10.96875 -1.382812 11.125 -1.46875 C 11.28125 -1.550781 11.414062 -1.664062 11.53125 -1.8125 C 11.644531 -1.96875 11.734375 -2.144531 11.796875 -2.34375 C 11.867188 -2.550781 11.925781 -2.773438 11.96875 -3.015625 L 12.140625 -4.046875 L 13.671875 -4.046875 L 13.5 0 L 0.609375 0 L 0.609375 -1.171875 L 1.53125 -1.171875 C 1.6875 -1.171875 1.832031 -1.179688 1.96875 -1.203125 C 2.113281 -1.234375 2.238281 -1.296875 2.34375 -1.390625 C 2.445312 -1.484375 2.523438 -1.613281 2.578125 -1.78125 C 2.640625 -1.957031 2.671875 -2.191406 2.671875 -2.484375 L 2.671875 -13.109375 C 2.671875 -13.429688 2.640625 -13.679688 2.578125 -13.859375 C 2.523438 -14.046875 2.445312 -14.191406 2.34375 -14.296875 C 2.238281 -14.398438 2.117188 -14.46875 1.984375 -14.5 C 1.847656 -14.53125 1.695312 -14.546875 1.53125 -14.546875 L 0.609375 -14.546875 L 0.609375 -15.703125 L 12.828125 -15.703125 L 12.90625 -11.65625 L 11.375 -11.65625 L 11.265625 -12.703125 C 11.210938 -13.234375 11.078125 -13.640625 10.859375 -13.921875 C 10.640625 -14.210938 10.304688 -14.359375 9.859375 -14.359375 L 6.15625 -14.359375 L 6.15625 -8.859375 L 11.375 -8.859375 L 11.375 -7.546875 L 6.15625 -7.546875 Z M 6.15625 -1.34375 "/></g></g></g><g clip-path="url(#5f65857c51)"><path fill="#f82107" d="M 143.082031 178.601562 C 140.488281 179.695312 137.882812 180.75 135.277344 181.800781 L 131.359375 183.351562 C 130.703125 183.605469 130.058594 183.882812 129.386719 184.085938 C 128.71875 184.292969 128.042969 184.492188 127.378906 184.714844 L 111.382812 189.910156 L 110.304688 190.257812 L 110.136719 189.140625 L 103.976562 148.402344 L 103.820312 147.367188 L 104.863281 147.296875 L 121.476562 146.175781 L 123.550781 146.03125 C 124.242188 145.972656 124.933594 145.898438 125.628906 145.917969 L 129.800781 145.921875 C 132.585938 145.925781 135.367188 145.957031 138.152344 146.011719 C 135.402344 146.441406 132.648438 146.847656 129.890625 147.226562 L 125.757812 147.792969 C 125.070312 147.902344 124.375 147.925781 123.683594 147.957031 L 121.605469 148.09375 L 104.992188 149.214844 L 105.878906 148.113281 L 112.035156 188.851562 L 110.789062 188.082031 L 126.785156 182.882812 C 127.453125 182.675781 128.113281 182.4375 128.777344 182.210938 C 129.441406 181.980469 130.125 181.824219 130.804688 181.648438 L 134.886719 180.601562 C 137.613281 179.917969 140.339844 179.238281 143.082031 178.601562 " fill-opacity="1" fill-rule="nonzero"/></g><path fill="#f82107" d="M 113.746094 154.882812 L 112.566406 147.070312 C 112.210938 144.722656 112.796875 142.410156 114.21875 140.558594 C 115.640625 138.707031 117.726562 137.542969 120.089844 137.277344 C 124.925781 136.738281 129.460938 140.214844 130.1875 145.027344 L 131.367188 152.84375 L 129.46875 153.128906 L 128.285156 145.316406 C 127.710938 141.511719 124.132812 138.761719 120.300781 139.1875 C 118.460938 139.394531 116.84375 140.296875 115.742188 141.730469 C 114.644531 143.164062 114.191406 144.957031 114.464844 146.78125 L 115.648438 154.597656 L 113.746094 154.882812 " fill-opacity="1" fill-rule="nonzero"/><path fill="#f82107" d="M 127.933594 153.261719 C 128.140625 154.625 129.417969 155.609375 130.792969 155.457031 C 132.164062 155.300781 133.105469 154.074219 132.902344 152.710938 C 132.695312 151.347656 131.417969 150.363281 130.042969 150.519531 C 128.671875 150.671875 127.730469 151.898438 127.933594 153.261719 " fill-opacity="1" fill-rule="nonzero"/><path fill="#f82107" d="M 112.214844 155.015625 C 112.417969 156.378906 113.699219 157.363281 115.070312 157.207031 C 116.441406 157.054688 117.386719 155.828125 117.179688 154.464844 C 116.972656 153.101562 115.695312 152.117188 114.324219 152.273438 C 112.953125 152.425781 112.007812 153.652344 112.214844 155.015625 " fill-opacity="1" fill-rule="nonzero"/><g clip-path="url(#f226a5175f)"><path fill="#f82107" d="M 102.214844 147.976562 C 102.300781 148.816406 102.367188 149.648438 102.421875 150.484375 C 102.488281 151.316406 102.523438 152.148438 102.566406 152.984375 C 102.582031 153.398438 102.625 153.816406 102.613281 154.230469 C 102.605469 154.4375 102.5625 154.640625 102.539062 154.84375 C 102.511719 155.050781 102.496094 155.253906 102.476562 155.460938 L 102.242188 157.925781 L 99.453125 187.492188 L 98.019531 186.570312 C 98.179688 186.480469 98.285156 186.429688 98.414062 186.367188 C 98.542969 186.308594 98.664062 186.253906 98.792969 186.203125 C 99.042969 186.101562 99.292969 186.011719 99.550781 185.929688 C 100.0625 185.769531 100.585938 185.632812 101.121094 185.539062 C 101.660156 185.460938 102.214844 185.507812 102.753906 185.574219 C 103.292969 185.644531 103.824219 185.769531 104.335938 185.945312 C 105.355469 186.296875 106.265625 186.890625 107.003906 187.605469 C 107.742188 188.320312 108.3125 189.15625 108.757812 190.03125 C 108.09375 189.304688 107.347656 188.675781 106.546875 188.191406 C 105.742188 187.714844 104.871094 187.421875 104 187.308594 C 103.5625 187.257812 103.125 187.25 102.691406 187.285156 C 102.257812 187.3125 101.832031 187.417969 101.410156 187.484375 C 100.980469 187.53125 100.550781 187.621094 100.136719 187.761719 C 99.929688 187.824219 99.722656 187.898438 99.523438 187.984375 C 99.421875 188.023438 99.324219 188.066406 99.226562 188.109375 C 99.136719 188.152344 99.023438 188.207031 98.972656 188.238281 L 97.367188 189.121094 L 97.539062 187.3125 L 99.398438 167.601562 L 100.328125 157.742188 L 100.5625 155.28125 C 100.578125 155.074219 100.601562 154.871094 100.613281 154.664062 C 100.625 154.457031 100.621094 154.25 100.652344 154.046875 C 100.722656 153.636719 100.84375 153.234375 100.933594 152.828125 C 101.132812 152.019531 101.324219 151.207031 101.542969 150.402344 C 101.753906 149.589844 101.976562 148.785156 102.214844 147.976562 " fill-opacity="1" fill-rule="nonzero"/></g></svg>