<?xml version="1.0" standalone="no"?>
<!DOCTYPE svg PUBLIC "-//W3C//DTD SVG 20010904//EN"
 "http://www.w3.org/TR/2001/REC-SVG-20010904/DTD/svg10.dtd">
<svg version="1.0" xmlns="http://www.w3.org/2000/svg"
 width="300.000000pt" height="42.000000pt" viewBox="0 0 300.000000 42.000000"
 preserveAspectRatio="xMidYMid meet">
<metadata>
Created by potrace 1.10, written by Peter Selinger 2001-2011
</metadata>
<g transform="translate(0.000000,42.000000) scale(0.100000,-0.100000)"
fill="#000000" stroke="none">
<path d="M611 372 c-11 -9 -29 -51 -41 -92 -12 -41 -26 -80 -31 -86 -6 -7 -53
-13 -114 -16 -106 -4 -133 -13 -122 -42 5 -13 25 -16 124 -14 l118 1 -107 6
c-58 3 -110 9 -114 14 -4 4 41 7 100 7 99 0 109 2 131 24 13 13 29 43 35 67
26 103 35 124 53 123 21 -2 23 12 2 19 -7 3 -23 -2 -34 -11z"/>
<path d="M245 372 c-5 -5 19 -72 39 -110 14 -27 23 -31 68 -36 29 -4 85 -2
123 3 l70 8 -107 2 c-94 1 -111 4 -128 21 -11 11 -20 23 -20 28 0 4 52 6 116
4 80 -2 114 0 109 7 -4 7 -50 11 -119 11 -105 0 -114 1 -119 20 -5 19 0 20
113 20 137 0 180 19 48 21 -46 1 -107 2 -136 3 -30 1 -55 -1 -57 -2z"/>
<path d="M720 378 c0 -2 -1 -69 -3 -151 l-2 -147 33 0 32 0 0 63 0 62 60 -3
60 -4 0 29 0 29 -60 -4 -60 -4 0 42 0 43 65 -5 65 -6 0 29 0 29 -95 0 c-52 0
-95 -1 -95 -2z"/>
<path d="M1530 378 c0 -2 -2 -69 -3 -151 l-2 -147 33 0 32 0 0 80 c0 87 12
106 58 89 20 -8 22 -15 22 -89 l0 -80 30 0 30 0 0 90 c0 77 -3 93 -20 110 -31
31 -85 30 -113 -3 -18 -22 -18 -21 -12 41 l7 62 -31 0 c-17 0 -31 -1 -31 -2z"/>
<path d="M1845 371 c-75 -33 -103 -145 -58 -233 39 -78 187 -77 228 2 20 39
20 40 -20 40 -19 0 -35 -4 -35 -9 0 -18 -32 -41 -56 -41 -14 0 -36 11 -49 25
-20 19 -25 34 -25 73 0 57 20 88 62 98 23 5 33 0 57 -25 18 -19 39 -31 55 -31
36 0 33 22 -7 66 -28 31 -41 37 -83 40 -27 2 -58 0 -69 -5z"/>
<path d="M2460 331 c0 -21 -5 -31 -15 -31 -8 0 -15 -9 -15 -20 0 -11 7 -20 15
-20 12 0 15 -14 15 -70 0 -83 18 -110 75 -110 46 0 47 36 3 53 -15 5 -18 18
-18 67 0 57 1 60 25 60 18 0 25 5 25 20 0 15 -7 20 -26 20 -22 0 -25 4 -22 28
3 24 -1 27 -29 30 -31 3 -33 1 -33 -27z"/>
<path d="M1013 283 c-24 -26 -26 -27 -20 -5 4 19 1 22 -26 22 l-32 0 0 -110 0
-110 33 0 32 0 0 73 c0 78 9 97 47 97 19 0 23 5 23 30 0 38 -22 39 -57 3z"/>
<path d="M1147 300 c-40 -12 -54 -26 -67 -66 -15 -46 -5 -100 25 -130 35 -35
116 -34 150 1 14 13 25 29 25 35 0 15 -49 12 -66 -5 -20 -19 -48 -19 -68 1
-34 34 -20 44 59 44 l75 0 0 30 c0 35 -43 86 -80 93 -14 3 -38 1 -53 -3z m67
-56 c26 -26 18 -34 -34 -34 -37 0 -50 4 -50 15 0 32 58 45 84 19z"/>
<path d="M1367 300 c-41 -12 -57 -29 -57 -59 0 -39 11 -50 71 -69 34 -10 54
-23 54 -32 0 -21 -49 -25 -65 -6 -14 18 -70 22 -70 6 0 -6 11 -22 25 -35 35
-36 115 -36 150 0 44 43 27 85 -43 105 -20 5 -43 10 -49 10 -7 0 -13 9 -13 20
0 16 7 20 30 20 17 0 30 -4 30 -10 0 -5 14 -10 30 -10 56 0 25 50 -40 63 -14
3 -38 1 -53 -3z"/>
<path d="M2128 300 c-30 -5 -68 -34 -68 -50 0 -13 57 -13 65 0 10 16 55 12 62
-6 7 -20 -13 -34 -50 -34 -30 0 -67 -16 -79 -34 -14 -20 -8 -63 10 -79 10 -10
34 -17 52 -17 18 0 42 7 52 17 17 15 18 15 18 0 0 -12 9 -17 30 -17 l30 0 0
84 c0 68 -4 88 -20 108 -21 27 -57 37 -102 28z m62 -139 c0 -25 -24 -43 -52
-39 -31 4 -36 36 -6 47 38 16 58 13 58 -8z"/>
<path d="M2365 286 c-23 -23 -25 -23 -25 -6 0 16 -7 20 -30 20 l-30 0 0 -110
0 -110 33 0 33 0 -4 64 c-5 79 8 106 49 106 27 0 30 3 27 27 -4 36 -22 39 -53
9z"/>
<path d="M356 94 c-19 -19 -20 -26 -4 -42 18 -18 46 -14 58 7 7 15 6 23 -6 35
-19 20 -29 20 -48 0z"/>
<path d="M470 95 c-19 -23 -8 -50 22 -53 19 -2 28 2 33 18 12 39 -29 66 -55
35z"/>
</g>
</svg>
