<?xml version="1.0" standalone="no"?>
<!DOCTYPE svg PUBLIC "-//W3C//DTD SVG 20010904//EN"
 "http://www.w3.org/TR/2001/REC-SVG-20010904/DTD/svg10.dtd">
<svg version="1.0" xmlns="http://www.w3.org/2000/svg"
 width="300.000000pt" height="26.000000pt" viewBox="0 0 300.000000 26.000000"
 preserveAspectRatio="xMidYMid meet">
<metadata>
Created by potrace 1.10, written by Peter Selinger 2001-2011
</metadata>
<g transform="translate(0.000000,26.000000) scale(0.100000,-0.100000)"
fill="#000000" stroke="none">
<path d="M972 223 c-6 -10 -13 -31 -16 -48 l-6 -30 -77 5 c-48 3 -78 10 -81
18 -3 9 15 12 65 14 l68 2 -74 5 c-51 4 -76 10 -79 20 -4 11 4 13 34 9 22 -3
59 -2 84 2 37 6 29 8 -47 9 -51 0 -93 -2 -93 -6 1 -5 9 -24 18 -43 l17 -35 78
-3 c103 -4 101 -25 -4 -32 -75 -5 -90 -16 -49 -36 14 -8 18 -14 10 -19 -12 -7
4 -35 22 -35 16 0 21 32 7 41 -10 6 -5 9 17 9 25 0 30 -4 30 -21 -1 -27 22
-37 30 -14 10 25 -11 39 -69 46 l-52 6 63 2 c74 1 96 18 107 81 4 23 13 44 21
47 18 7 18 23 -1 23 -8 0 -18 -8 -23 -17z"/>
<path d="M1754 230 c-57 -23 -73 -112 -29 -155 31 -32 86 -34 115 -5 11 11 20
25 20 30 0 6 -9 10 -20 10 -11 0 -20 -4 -20 -9 0 -16 -38 -23 -60 -11 -23 12
-29 77 -8 98 17 17 57 15 64 -3 8 -19 44 -20 44 -2 0 34 -67 64 -106 47z"/>
<path d="M1048 140 c-3 -89 -3 -90 20 -90 21 0 23 4 20 38 -3 37 -3 37 35 36
30 -1 37 2 37 17 0 15 -8 19 -40 19 -33 0 -40 3 -40 20 0 17 7 20 45 20 33 0
45 4 45 15 0 12 -13 15 -59 15 l-60 0 -3 -90z"/>
<path d="M1550 140 c0 -83 2 -90 19 -90 17 0 20 8 23 53 3 44 6 52 23 52 17 0
20 -8 23 -52 3 -45 6 -53 23 -53 16 0 19 7 19 54 0 36 -5 60 -16 70 -18 19
-45 21 -62 4 -9 -9 -12 -5 -12 20 0 25 -4 32 -20 32 -19 0 -20 -7 -20 -90z"/>
<path d="M2127 201 c-7 -27 4 -124 15 -138 15 -18 58 -16 58 2 0 8 -7 15 -15
15 -11 0 -15 11 -15 40 0 29 4 40 15 40 8 0 15 7 15 15 0 8 -7 15 -15 15 -8 0
-15 7 -15 15 0 22 -37 19 -43 -4z"/>
<path d="M1180 120 c0 -63 2 -70 19 -70 17 0 20 8 23 48 2 38 7 49 26 57 24
10 30 35 9 35 -7 0 -18 -5 -25 -12 -9 -9 -12 -9 -12 0 0 7 -9 12 -20 12 -18 0
-20 -7 -20 -70z"/>
<path d="M1290 170 c-26 -26 -26 -81 -2 -103 24 -22 76 -22 98 1 16 15 16 17
1 20 -9 2 -25 -2 -36 -7 -15 -9 -23 -7 -37 7 -17 16 -15 17 35 20 52 3 53 4
46 30 -12 52 -68 69 -105 32z m68 -27 c2 -9 -7 -13 -27 -13 -23 0 -29 4 -24
16 6 17 44 15 51 -3z"/>
<path d="M1426 168 c-18 -25 -5 -58 22 -58 10 0 26 -6 36 -13 18 -13 18 -14 1
-21 -10 -4 -23 -2 -29 4 -12 12 -46 13 -46 1 0 -34 94 -41 114 -8 15 24 -3 51
-39 57 -16 3 -30 11 -33 19 -3 10 4 12 37 6 44 -7 56 6 22 25 -32 17 -69 12
-85 -12z"/>
<path d="M1894 169 l-19 -21 43 7 c35 6 42 4 42 -9 0 -11 -9 -16 -29 -16 -34
0 -54 -20 -49 -52 3 -21 9 -23 61 -25 l57 -2 0 54 c0 35 -5 59 -16 69 -22 23
-67 20 -90 -5z m66 -74 c0 -9 -7 -18 -16 -22 -18 -7 -39 11 -30 26 11 17 46
13 46 -4z"/>
<path d="M2020 120 c0 -63 2 -70 20 -70 17 0 20 7 20 49 0 41 4 51 20 56 11 3
20 13 20 21 0 17 -12 18 -28 2 -9 -9 -12 -9 -12 0 0 7 -9 12 -20 12 -18 0 -20
-7 -20 -70z"/>
</g>
</svg>
