<?xml version="1.0" encoding="UTF-8"?>
<svg xmlns="http://www.w3.org/2000/svg" xmlns:xlink="http://www.w3.org/1999/xlink" width="130px" height="31px" viewBox="0 0 130 31" version="1.1">
<g id="surface1">
<path style=" stroke:none;fill-rule:nonzero;fill:rgb(0%,0%,0%);fill-opacity:1;" d="M 26.867188 3.078125 C 26.074219 3.667969 25.699219 5 24.820312 10.207031 C 23.960938 15.234375 23.566406 16.800781 22.964844 17.453125 C 22.691406 17.75 21.523438 17.925781 18.378906 18.074219 C 16.0625 18.191406 13.964844 18.429688 13.691406 18.605469 C 13.433594 18.785156 13.125 19.257812 13.019531 19.671875 C 12.847656 20.351562 12.867188 20.527344 13.242188 21.179688 C 13.929688 22.363281 15.410156 22.597656 19.460938 22.214844 C 21.367188 22.007812 22.949219 21.800781 23 21.742188 C 23.035156 21.652344 21.609375 21.59375 19.824219 21.59375 C 16.730469 21.59375 15.132812 21.328125 14.121094 20.675781 C 13.15625 20.054688 14.257812 19.820312 18.429688 19.820312 C 22.332031 19.820312 22.742188 19.757812 23.34375 19.226562 C 24.597656 18.132812 25.078125 16.445312 26.023438 9.644531 C 26.695312 4.851562 26.984375 3.992188 27.894531 3.992188 C 28.617188 3.992188 28.667969 3.785156 28.136719 3.136719 C 27.671875 2.574219 27.554688 2.574219 26.867188 3.078125 Z M 26.867188 3.078125 "/>
<path style=" stroke:none;fill-rule:nonzero;fill:rgb(0%,0%,0%);fill-opacity:1;" d="M 80.855469 3.253906 C 78.15625 4.4375 76.457031 8.546875 76.441406 13.960938 C 76.441406 17.363281 77.09375 20.617188 78.175781 22.453125 C 79.789062 25.230469 83.054688 26.179688 85.027344 24.402344 C 86.28125 23.28125 87.417969 20.972656 87.742188 18.84375 L 87.914062 17.75 L 85.234375 17.75 L 84.910156 18.84375 C 84.460938 20.378906 83.84375 21.0625 82.726562 21.238281 C 81.40625 21.417969 80.375 20.527344 79.738281 18.695312 C 79.308594 17.421875 79.273438 17.039062 79.273438 14.167969 C 79.273438 11.210938 79.308594 10.972656 79.789062 9.613281 C 80.511719 7.632812 81.214844 7.039062 82.660156 7.160156 C 83.65625 7.246094 83.878906 7.394531 84.34375 8.132812 C 84.617188 8.609375 84.960938 9.4375 85.0625 9.96875 L 85.269531 10.972656 L 86.574219 10.886719 L 87.863281 10.796875 L 87.8125 9.910156 C 87.726562 8.667969 86.953125 6.300781 86.316406 5.414062 C 85.011719 3.492188 82.554688 2.515625 80.855469 3.253906 Z M 80.855469 3.253906 "/>
<path style=" stroke:none;fill-rule:nonzero;fill:rgb(0%,0%,0%);fill-opacity:1;" d="M 31.089844 14.199219 L 31.089844 25.144531 L 33.667969 25.144531 L 33.667969 16.003906 L 36.296875 15.914062 L 38.90625 15.824219 L 38.957031 14.140625 L 39.011719 12.453125 L 36.382812 12.363281 L 33.753906 12.277344 L 33.703125 9.671875 L 33.652344 7.097656 L 39.507812 7.097656 L 39.507812 3.253906 L 31.089844 3.253906 Z M 31.089844 14.199219 "/>
<path style=" stroke:none;fill-rule:nonzero;fill:rgb(0%,0%,0%);fill-opacity:1;" d="M 66.132812 14.199219 L 66.132812 25.144531 L 68.675781 25.144531 L 68.746094 19.730469 C 68.796875 15.144531 68.847656 14.226562 69.105469 13.546875 C 69.535156 12.484375 70.308594 12.039062 71.113281 12.421875 C 72.199219 12.925781 72.214844 13.105469 72.316406 19.34375 L 72.402344 24.996094 L 74.980469 24.996094 L 74.980469 18.785156 C 74.980469 13.546875 74.929688 12.421875 74.6875 11.683594 C 73.964844 9.40625 72.609375 8.3125 71.03125 8.695312 C 70.324219 8.902344 70.050781 9.167969 69.449219 10.234375 L 68.710938 11.535156 L 68.710938 3.253906 L 66.132812 3.253906 Z M 66.132812 14.199219 "/>
<path style=" stroke:none;fill-rule:nonzero;fill:rgb(0%,0%,0%);fill-opacity:1;" d="M 10.71875 3.964844 C 10.582031 4.554688 11.320312 8.195312 12.128906 10.972656 C 13.105469 14.375 12.796875 14.199219 18.707031 14.167969 C 21.507812 14.140625 23.636719 14.019531 23.449219 13.902344 C 23.257812 13.785156 21.679688 13.667969 19.925781 13.636719 C 16.265625 13.578125 14.035156 13.25 13.640625 12.691406 C 13.414062 12.363281 12.539062 9.730469 12.539062 9.375 C 12.539062 9.316406 14.6875 9.289062 17.316406 9.289062 C 20.304688 9.316406 22.109375 9.199219 22.160156 9.023438 C 22.3125 8.488281 21.265625 8.339844 16.800781 8.3125 C 11.902344 8.28125 12.246094 8.429688 11.902344 6.210938 L 11.730469 5.175781 L 16.386719 5.148438 C 21.230469 5.117188 22.964844 4.792969 22.246094 4.050781 C 22.003906 3.816406 20.097656 3.667969 16.371094 3.609375 C 11.355469 3.492188 10.820312 3.550781 10.71875 3.964844 Z M 10.71875 3.964844 "/>
<path style=" stroke:none;fill-rule:nonzero;fill:rgb(0%,0%,0%);fill-opacity:1;" d="M 106.808594 6.714844 L 106.757812 8.726562 L 106.125 8.816406 L 105.46875 8.902344 L 105.46875 12.128906 L 106.84375 12.128906 L 106.84375 17.15625 C 106.84375 22.953125 106.949219 23.574219 108.0625 24.550781 C 108.597656 25.054688 109.007812 25.144531 109.988281 25.082031 L 111.226562 24.996094 L 111.191406 24.019531 C 111.140625 22.007812 111 21.59375 110.398438 21.59375 C 109.472656 21.59375 109.421875 21.328125 109.421875 16.503906 L 109.421875 12.128906 L 111.140625 12.128906 L 111.140625 8.875 L 109.421875 8.875 L 109.421875 4.734375 L 106.863281 4.734375 Z M 106.808594 6.714844 "/>
<path style=" stroke:none;fill-rule:nonzero;fill:rgb(0%,0%,0%);fill-opacity:1;" d="M 44.660156 8.785156 C 44.265625 9.050781 43.785156 9.820312 43.441406 10.796875 L 43.117188 11.683594 L 43.117188 8.875 L 40.539062 8.875 L 40.574219 16.917969 L 40.625 24.996094 L 43.203125 24.996094 L 43.289062 19.582031 L 43.375 14.140625 L 43.957031 13.25 C 44.472656 12.453125 44.628906 12.394531 45.453125 12.484375 L 46.378906 12.570312 L 46.378906 8.578125 L 45.65625 8.609375 C 45.246094 8.609375 44.800781 8.695312 44.660156 8.785156 Z M 44.660156 8.785156 "/>
<path style=" stroke:none;fill-rule:nonzero;fill:rgb(0%,0%,0%);fill-opacity:1;" d="M 49.335938 9.109375 C 47.460938 10.265625 46.484375 12.984375 46.484375 17.039062 C 46.484375 21.238281 47.582031 23.988281 49.695312 24.996094 C 52.082031 26.148438 54.847656 24.285156 55.378906 21.121094 C 55.484375 20.527344 55.414062 20.46875 54.332031 20.320312 C 53.25 20.171875 53.164062 20.234375 52.71875 21 C 52.460938 21.445312 52.015625 21.890625 51.738281 21.976562 C 51.171875 22.183594 50.226562 21.800781 49.761719 21.207031 C 49.4375 20.824219 48.9375 18.636719 49.078125 18.28125 C 49.109375 18.132812 50.570312 18.042969 52.324219 18.042969 L 55.484375 18.042969 L 55.484375 16.386719 C 55.484375 15.46875 55.398438 14.199219 55.277344 13.578125 C 55.019531 12.070312 54.074219 10.207031 53.183594 9.40625 C 52.183594 8.519531 50.503906 8.402344 49.335938 9.109375 Z M 52.613281 13.015625 C 52.871094 13.488281 53.078125 14.226562 53.078125 14.640625 L 53.078125 15.382812 L 51.101562 15.382812 C 49.164062 15.382812 49.128906 15.382812 49.128906 14.703125 C 49.128906 12.128906 51.53125 10.945312 52.613281 13.015625 Z M 52.613281 13.015625 "/>
<path style=" stroke:none;fill-rule:nonzero;fill:rgb(0%,0%,0%);fill-opacity:1;" d="M 58.886719 8.992188 C 57.40625 9.910156 56.6875 11.417969 56.6875 13.546875 C 56.6875 16.238281 57.476562 17.480469 59.761719 18.339844 C 62.25 19.285156 62.648438 19.757812 62.097656 21.179688 C 61.566406 22.597656 59.984375 22.511719 59.246094 21 C 58.800781 20.113281 58.78125 20.113281 57.578125 20.292969 L 56.359375 20.5 L 56.617188 21.5625 C 57.167969 23.839844 58.25 24.964844 60.15625 25.320312 C 62.851562 25.792969 64.929688 23.488281 64.929688 19.996094 C 64.929688 17.511719 64.277344 16.625 61.496094 15.410156 C 60.429688 14.9375 59.503906 14.375 59.417969 14.167969 C 59.054688 13.191406 59.417969 12.128906 60.257812 11.683594 C 60.792969 11.417969 61.769531 12.039062 62.164062 12.925781 C 62.492188 13.605469 62.578125 13.636719 63.644531 13.457031 C 64.535156 13.28125 64.757812 13.132812 64.691406 12.808594 C 64.640625 12.570312 64.585938 12.246094 64.585938 12.097656 C 64.585938 11.949219 64.3125 11.300781 63.96875 10.648438 C 63.539062 9.820312 63.074219 9.347656 62.476562 9.023438 C 61.410156 8.488281 59.742188 8.460938 58.886719 8.992188 Z M 58.886719 8.992188 "/>
<path style=" stroke:none;fill-rule:nonzero;fill:rgb(0%,0%,0%);fill-opacity:1;" d="M 91.539062 9.023438 C 90.664062 9.496094 89.324219 11.714844 89.324219 12.691406 C 89.324219 13.164062 89.496094 13.28125 90.40625 13.457031 C 91.46875 13.667969 91.503906 13.636719 92.019531 12.75 C 92.449219 12.007812 92.707031 11.832031 93.273438 11.832031 C 94.375 11.832031 95.265625 13.785156 94.597656 14.730469 C 94.476562 14.910156 93.636719 15.234375 92.742188 15.46875 C 90.472656 16.0625 89.582031 16.773438 89.152344 18.398438 C 88.773438 19.847656 88.738281 20.410156 88.980469 21.949219 C 89.546875 25.378906 92.691406 26.5625 94.320312 23.929688 C 94.613281 23.457031 94.890625 23.074219 94.921875 23.074219 C 94.957031 23.074219 94.992188 23.546875 94.992188 24.109375 L 94.992188 25.144531 L 97.398438 25.144531 L 97.398438 18.992188 C 97.398438 11.714844 97.257812 10.945312 95.953125 9.613281 C 94.957031 8.609375 92.808594 8.3125 91.539062 9.023438 Z M 94.820312 18.8125 C 94.820312 19.964844 94.734375 20.320312 94.234375 21.179688 C 93.722656 22.066406 93.550781 22.183594 92.792969 22.183594 C 92.089844 22.183594 91.867188 22.066406 91.660156 21.535156 C 91.058594 20.054688 91.625 18.546875 92.914062 18.191406 C 93.429688 18.042969 94.632812 17.601562 94.785156 17.480469 C 94.804688 17.453125 94.820312 18.074219 94.820312 18.8125 Z M 94.820312 18.8125 "/>
<path style=" stroke:none;fill-rule:nonzero;fill:rgb(0%,0%,0%);fill-opacity:1;" d="M 103.066406 8.785156 C 102.671875 9.050781 102.191406 9.820312 101.847656 10.796875 L 101.519531 11.683594 L 101.519531 8.875 L 98.941406 8.875 L 98.976562 16.917969 L 99.027344 24.996094 L 101.605469 24.996094 L 101.691406 19.582031 L 101.777344 14.140625 L 102.359375 13.25 C 102.875 12.453125 103.03125 12.394531 103.855469 12.484375 L 104.785156 12.570312 L 104.785156 8.578125 L 104.0625 8.609375 C 103.648438 8.609375 103.203125 8.695312 103.066406 8.785156 Z M 103.066406 8.785156 "/>
<path style=" stroke:none;fill-rule:nonzero;fill:rgb(0%,0%,0%);fill-opacity:1;" d="M 15.855469 23.367188 C 15.253906 23.78125 14.894531 24.996094 15.011719 26.148438 C 15.152344 27.332031 15.546875 28.042969 16.265625 28.277344 C 17.832031 28.8125 18.601562 24.789062 17.160156 23.515625 C 16.609375 23.011719 16.40625 22.984375 15.855469 23.367188 Z M 15.855469 23.367188 "/>
<path style=" stroke:none;fill-rule:nonzero;fill:rgb(0%,0%,0%);fill-opacity:1;" d="M 20.457031 23.839844 C 19.738281 24.875 19.71875 26.445312 20.40625 27.597656 C 21.007812 28.605469 21.644531 28.605469 22.3125 27.628906 C 22.742188 27.035156 22.847656 26.621094 22.847656 25.734375 C 22.847656 24.847656 22.742188 24.433594 22.3125 23.839844 C 22.023438 23.425781 21.609375 23.074219 21.386719 23.074219 C 21.164062 23.074219 20.75 23.425781 20.457031 23.839844 Z M 20.457031 23.839844 "/>
</g>
</svg>
