<?xml version="1.0" encoding="UTF-8"?>
<svg xmlns="http://www.w3.org/2000/svg" xmlns:xlink="http://www.w3.org/1999/xlink" width="150px" height="40px" viewBox="0 0 150 40" version="1.1">
<g id="surface1">
<path style=" stroke:none;fill-rule:nonzero;fill:rgb(0%,0%,0%);fill-opacity:1;" d="M 31 3.96875 C 30.085938 4.734375 29.652344 6.449219 28.640625 13.167969 C 27.648438 19.65625 27.195312 21.679688 26.5 22.519531 C 26.183594 22.902344 24.835938 23.128906 21.207031 23.320312 C 18.53125 23.472656 16.113281 23.777344 15.796875 24.007812 C 15.5 24.238281 15.144531 24.847656 15.023438 25.382812 C 14.824219 26.257812 14.84375 26.488281 15.28125 27.328125 C 16.074219 28.855469 17.777344 29.160156 22.457031 28.664062 C 24.65625 28.398438 26.480469 28.128906 26.539062 28.054688 C 26.578125 27.9375 24.933594 27.863281 22.871094 27.863281 C 19.304688 27.863281 17.460938 27.519531 16.292969 26.679688 C 15.183594 25.878906 16.449219 25.574219 21.265625 25.574219 C 25.765625 25.574219 26.242188 25.496094 26.9375 24.808594 C 28.382812 23.398438 28.9375 21.222656 30.027344 12.441406 C 30.800781 6.257812 31.136719 5.152344 32.1875 5.152344 C 33.019531 5.152344 33.078125 4.886719 32.464844 4.046875 C 31.929688 3.320312 31.792969 3.320312 31 3.96875 Z M 31 3.96875 "/>
<path style=" stroke:none;fill-rule:nonzero;fill:rgb(0%,0%,0%);fill-opacity:1;" d="M 93.292969 4.199219 C 90.183594 5.726562 88.21875 11.03125 88.199219 18.015625 C 88.199219 22.40625 88.953125 26.601562 90.203125 28.96875 C 92.066406 32.558594 95.832031 33.777344 98.109375 31.488281 C 99.558594 30.039062 100.867188 27.0625 101.242188 24.3125 L 101.441406 22.902344 L 98.347656 22.902344 L 97.972656 24.3125 C 97.457031 26.296875 96.742188 27.175781 95.453125 27.40625 C 93.929688 27.632812 92.738281 26.488281 92.003906 24.121094 C 91.511719 22.480469 91.46875 21.984375 91.46875 18.28125 C 91.46875 14.464844 91.511719 14.160156 92.066406 12.40625 C 92.898438 9.847656 93.710938 9.082031 95.375 9.238281 C 96.523438 9.351562 96.78125 9.542969 97.316406 10.496094 C 97.636719 11.105469 98.03125 12.175781 98.148438 12.863281 L 98.386719 14.160156 L 99.894531 14.046875 L 101.378906 13.929688 L 101.320312 12.785156 C 101.222656 11.183594 100.332031 8.128906 99.597656 6.984375 C 98.089844 4.503906 95.257812 3.246094 93.292969 4.199219 Z M 93.292969 4.199219 "/>
<path style=" stroke:none;fill-rule:nonzero;fill:rgb(0%,0%,0%);fill-opacity:1;" d="M 35.875 18.320312 L 35.875 32.441406 L 38.847656 32.441406 L 38.847656 20.648438 L 41.878906 20.535156 L 44.894531 20.417969 L 44.953125 18.246094 L 45.011719 16.070312 L 41.980469 15.953125 L 38.945312 15.839844 L 38.886719 12.480469 L 38.828125 9.160156 L 45.585938 9.160156 L 45.585938 4.199219 L 35.875 4.199219 Z M 35.875 18.320312 "/>
<path style=" stroke:none;fill-rule:nonzero;fill:rgb(0%,0%,0%);fill-opacity:1;" d="M 76.308594 18.320312 L 76.308594 32.441406 L 79.242188 32.441406 L 79.320312 25.457031 C 79.378906 19.542969 79.441406 18.359375 79.738281 17.480469 C 80.234375 16.105469 81.125 15.535156 82.054688 16.03125 C 83.304688 16.679688 83.324219 16.910156 83.445312 24.960938 L 83.542969 32.25 L 86.515625 32.25 L 86.515625 24.238281 C 86.515625 17.480469 86.457031 16.03125 86.179688 15.078125 C 85.347656 12.136719 83.78125 10.726562 81.957031 11.222656 C 81.144531 11.488281 80.828125 11.832031 80.132812 13.207031 L 79.28125 14.886719 L 79.28125 4.199219 L 76.308594 4.199219 Z M 76.308594 18.320312 "/>
<path style=" stroke:none;fill-rule:nonzero;fill:rgb(0%,0%,0%);fill-opacity:1;" d="M 12.367188 5.113281 C 12.210938 5.878906 13.0625 10.574219 13.992188 14.160156 C 15.121094 18.550781 14.765625 18.320312 21.585938 18.28125 C 24.816406 18.246094 27.273438 18.089844 27.054688 17.9375 C 26.835938 17.785156 25.011719 17.632812 22.992188 17.59375 C 18.769531 17.519531 16.191406 17.097656 15.738281 16.375 C 15.480469 15.953125 14.46875 12.558594 14.46875 12.097656 C 14.46875 12.023438 16.945312 11.984375 19.980469 11.984375 C 23.425781 12.023438 25.507812 11.871094 25.566406 11.640625 C 25.746094 10.953125 24.539062 10.761719 19.382812 10.726562 C 13.734375 10.6875 14.132812 10.878906 13.734375 8.015625 L 13.539062 6.679688 L 18.910156 6.640625 C 24.496094 6.601562 26.5 6.183594 25.667969 5.230469 C 25.390625 4.921875 23.191406 4.734375 18.890625 4.65625 C 13.101562 4.503906 12.488281 4.582031 12.367188 5.113281 Z M 12.367188 5.113281 "/>
<path style=" stroke:none;fill-rule:nonzero;fill:rgb(0%,0%,0%);fill-opacity:1;" d="M 123.242188 8.664062 L 123.183594 11.257812 L 122.449219 11.375 L 121.695312 11.488281 L 121.695312 15.648438 L 123.28125 15.648438 L 123.28125 22.136719 C 123.28125 29.617188 123.402344 30.417969 124.691406 31.679688 C 125.304688 32.328125 125.78125 32.441406 126.910156 32.367188 L 128.335938 32.25 L 128.296875 30.992188 C 128.238281 28.398438 128.078125 27.863281 127.386719 27.863281 C 126.316406 27.863281 126.253906 27.519531 126.253906 21.296875 L 126.253906 15.648438 L 128.238281 15.648438 L 128.238281 11.449219 L 126.253906 11.449219 L 126.253906 6.105469 L 123.300781 6.105469 Z M 123.242188 8.664062 "/>
<path style=" stroke:none;fill-rule:nonzero;fill:rgb(0%,0%,0%);fill-opacity:1;" d="M 51.53125 11.335938 C 51.078125 11.679688 50.523438 12.671875 50.125 13.929688 L 49.75 15.078125 L 49.75 11.449219 L 46.777344 11.449219 L 46.816406 21.832031 L 46.875 32.25 L 49.847656 32.25 L 49.945312 25.265625 L 50.046875 18.246094 L 50.71875 17.097656 C 51.316406 16.070312 51.492188 15.992188 52.445312 16.105469 L 53.515625 16.222656 L 53.515625 11.070312 L 52.683594 11.105469 C 52.207031 11.105469 51.691406 11.222656 51.53125 11.335938 Z M 51.53125 11.335938 "/>
<path style=" stroke:none;fill-rule:nonzero;fill:rgb(0%,0%,0%);fill-opacity:1;" d="M 56.925781 11.753906 C 54.761719 13.246094 53.632812 16.753906 53.632812 21.984375 C 53.632812 27.40625 54.902344 30.953125 57.339844 32.25 C 60.09375 33.742188 63.285156 31.335938 63.902344 27.25 C 64.019531 26.488281 63.941406 26.414062 62.691406 26.222656 C 61.441406 26.03125 61.34375 26.105469 60.828125 27.097656 C 60.53125 27.671875 60.015625 28.246094 59.699219 28.359375 C 59.042969 28.625 57.953125 28.128906 57.417969 27.367188 C 57.042969 26.871094 56.46875 24.046875 56.625 23.585938 C 56.667969 23.398438 58.351562 23.28125 60.371094 23.28125 L 64.019531 23.28125 L 64.019531 21.144531 C 64.019531 19.960938 63.921875 18.320312 63.78125 17.519531 C 63.484375 15.574219 62.394531 13.167969 61.363281 12.136719 C 60.214844 10.992188 58.273438 10.839844 56.925781 11.753906 Z M 60.710938 16.792969 C 61.007812 17.40625 61.246094 18.359375 61.246094 18.894531 L 61.246094 19.847656 L 58.964844 19.847656 C 56.726562 19.847656 56.6875 19.847656 56.6875 18.96875 C 56.6875 15.648438 59.460938 14.121094 60.710938 16.792969 Z M 60.710938 16.792969 "/>
<path style=" stroke:none;fill-rule:nonzero;fill:rgb(0%,0%,0%);fill-opacity:1;" d="M 67.945312 11.601562 C 66.238281 12.785156 65.40625 14.734375 65.40625 17.480469 C 65.40625 20.953125 66.320312 22.558594 68.953125 23.664062 C 71.828125 24.886719 72.285156 25.496094 71.648438 27.328125 C 71.035156 29.160156 69.210938 29.046875 68.359375 27.097656 C 67.84375 25.953125 67.824219 25.953125 66.4375 26.183594 L 65.03125 26.449219 L 65.328125 27.824219 C 65.960938 30.761719 67.210938 32.214844 69.410156 32.671875 C 72.523438 33.28125 74.921875 30.304688 74.921875 25.800781 C 74.921875 22.59375 74.167969 21.449219 70.957031 19.886719 C 69.726562 19.273438 68.65625 18.550781 68.558594 18.28125 C 68.140625 17.023438 68.558594 15.648438 69.53125 15.078125 C 70.144531 14.734375 71.273438 15.535156 71.730469 16.679688 C 72.105469 17.558594 72.207031 17.59375 73.433594 17.367188 C 74.464844 17.136719 74.722656 16.945312 74.644531 16.527344 C 74.582031 16.222656 74.523438 15.800781 74.523438 15.609375 C 74.523438 15.417969 74.207031 14.582031 73.8125 13.742188 C 73.316406 12.671875 72.78125 12.0625 72.085938 11.640625 C 70.859375 10.953125 68.933594 10.917969 67.945312 11.601562 Z M 67.945312 11.601562 "/>
<path style=" stroke:none;fill-rule:nonzero;fill:rgb(0%,0%,0%);fill-opacity:1;" d="M 105.621094 11.640625 C 104.613281 12.25 103.066406 15.113281 103.066406 16.375 C 103.066406 16.984375 103.265625 17.136719 104.3125 17.367188 C 105.542969 17.632812 105.582031 17.59375 106.175781 16.449219 C 106.671875 15.496094 106.96875 15.265625 107.625 15.265625 C 108.894531 15.265625 109.921875 17.785156 109.148438 19.007812 C 109.011719 19.238281 108.039062 19.65625 107.011719 19.960938 C 104.394531 20.726562 103.363281 21.640625 102.867188 23.742188 C 102.429688 25.609375 102.390625 26.335938 102.667969 28.320312 C 103.324219 32.75 106.949219 34.273438 108.832031 30.878906 C 109.171875 30.265625 109.488281 29.769531 109.527344 29.769531 C 109.566406 29.769531 109.605469 30.382812 109.605469 31.105469 L 109.605469 32.441406 L 112.382812 32.441406 L 112.382812 24.503906 C 112.382812 15.113281 112.222656 14.121094 110.714844 12.40625 C 109.566406 11.105469 107.089844 10.726562 105.621094 11.640625 Z M 109.40625 24.273438 C 109.40625 25.761719 109.308594 26.222656 108.734375 27.328125 C 108.140625 28.472656 107.941406 28.625 107.070312 28.625 C 106.257812 28.625 106 28.472656 105.761719 27.785156 C 105.066406 25.878906 105.722656 23.929688 107.207031 23.472656 C 107.800781 23.28125 109.191406 22.710938 109.367188 22.558594 C 109.386719 22.519531 109.40625 23.320312 109.40625 24.273438 Z M 109.40625 24.273438 "/>
<path style=" stroke:none;fill-rule:nonzero;fill:rgb(0%,0%,0%);fill-opacity:1;" d="M 118.921875 11.335938 C 118.464844 11.679688 117.910156 12.671875 117.515625 13.929688 L 117.136719 15.078125 L 117.136719 11.449219 L 114.164062 11.449219 L 114.203125 21.832031 L 114.265625 32.25 L 117.238281 32.25 L 117.335938 25.265625 L 117.433594 18.246094 L 118.109375 17.097656 C 118.703125 16.070312 118.882812 15.992188 119.832031 16.105469 L 120.902344 16.222656 L 120.902344 11.070312 L 120.070312 11.105469 C 119.59375 11.105469 119.082031 11.222656 118.921875 11.335938 Z M 118.921875 11.335938 "/>
<path style=" stroke:none;fill-rule:nonzero;fill:rgb(0%,0%,0%);fill-opacity:1;" d="M 18.292969 30.152344 C 17.601562 30.6875 17.183594 32.25 17.324219 33.742188 C 17.480469 35.265625 17.9375 36.183594 18.769531 36.488281 C 20.574219 37.175781 21.464844 31.984375 19.800781 30.34375 C 19.167969 29.695312 18.929688 29.65625 18.292969 30.152344 Z M 18.292969 30.152344 "/>
<path style=" stroke:none;fill-rule:nonzero;fill:rgb(0%,0%,0%);fill-opacity:1;" d="M 23.605469 30.761719 C 22.773438 32.097656 22.753906 34.121094 23.546875 35.609375 C 24.238281 36.910156 24.972656 36.910156 25.746094 35.648438 C 26.242188 34.886719 26.359375 34.351562 26.359375 33.207031 C 26.359375 32.0625 26.242188 31.527344 25.746094 30.761719 C 25.410156 30.230469 24.933594 29.769531 24.675781 29.769531 C 24.417969 29.769531 23.941406 30.230469 23.605469 30.761719 Z M 23.605469 30.761719 "/>
</g>
</svg>
